<svg xmlns="http://www.w3.org/2000/svg" viewBox="0 0 1200 720" role="img" aria-label="성신여대 캠퍼스 약도">
  <rect width="1200" height="720" fill="#e8eee8"/>
  <path d="M0 555 C180 510 260 590 410 540 C580 480 690 520 850 470 C1010 420 1100 440 1200 400 L1200 720 L0 720 Z" fill="#c8d9ce"/>
  <path d="M90 130 L1110 90" stroke="#ffffff" stroke-width="34" stroke-linecap="round"/>
  <path d="M160 600 C300 480 390 390 510 320 C650 240 780 220 1030 200" stroke="#ffffff" stroke-width="42" stroke-linecap="round" fill="none"/>
  <path d="M500 110 L620 600" stroke="#ffffff" stroke-width="30" stroke-linecap="round"/>
  <rect x="340" y="245" width="180" height="150" rx="10" fill="#0f766e"/>
  <rect x="590" y="190" width="210" height="160" rx="10" fill="#315f8d"/>
  <rect x="765" y="390" width="160" height="150" rx="10" fill="#7d5a2f"/>
  <rect x="425" y="460" width="190" height="130" rx="10" fill="#d65f2b"/>
  <rect x="210" y="405" width="160" height="125" rx="10" fill="#8566a8"/>
  <circle cx="170" cy="135" r="44" fill="#f6c65b"/>
  <text x="430" y="327" fill="#fff" font-family="Arial, sans-serif" font-size="34" font-weight="700" text-anchor="middle">수정관</text>
  <text x="695" y="278" fill="#fff" font-family="Arial, sans-serif" font-size="34" font-weight="700" text-anchor="middle">성신관</text>
  <text x="845" y="470" fill="#fff" font-family="Arial, sans-serif" font-size="28" font-weight="700" text-anchor="middle">도서관</text>
  <text x="520" y="535" fill="#fff" font-family="Arial, sans-serif" font-size="28" font-weight="700" text-anchor="middle">학생회관</text>
  <text x="290" y="480" fill="#fff" font-family="Arial, sans-serif" font-size="28" font-weight="700" text-anchor="middle">난향관</text>
  <text x="170" y="145" fill="#18201d" font-family="Arial, sans-serif" font-size="24" font-weight="700" text-anchor="middle">정문</text>
</svg>
